Coordinates
version=1
nRows=29
nColumns=24
inDegrees=yes

Units are S.I. units (second, meters, Newtons, ...)
Angles are in degrees.

endheader
time	pelvis_tilt	pelvis_list	pelvis_rotation	pelvis_tx	pelvis_ty	pelvis_tz	hip_flexion_r	hip_adduction_r	hip_rotation_r	knee_angle_r	ankle_angle_r	subtalar_angle_r	mtp_angle_r	hip_flexion_l	hip_adduction_l	hip_rotation_l	knee_angle_l	ankle_angle_l	subtalar_angle_l	mtp_angle_l	lumbar_extension	lumbar_bending	lumbar_rotation
      4.02000000	     -8.19836015	     -9.43119206	      0.89396069	     -1.41178540	     -0.02620970	     -0.32562874	     17.27154442	     14.31725780	      1.91241962	    -21.79167587	      5.28586309	     -1.69796028	     11.48829283	     28.40033826	    -15.44829641	     -4.45307055	    -67.02627777	     -4.15240825	     -0.33000347	     -0.92380758	      6.83157218	      7.65386894	     -6.97273155
      4.02500000	     -8.09559062	     -9.08465869	      0.73392859	     -1.40568095	     -0.02514168	     -0.32510561	     16.40392053	     14.10617732	      2.52025771	    -21.33924533	      5.42351700	     -1.95571850	     11.13356424	     28.97333535	    -15.13615479	     -4.76897751	    -66.35517059	     -3.71492989	     -0.12847836	     -1.00913890	      6.69769515	      7.30066609	     -6.67671925
      4.03000000	     -8.02331443	     -8.73557796	      0.58654032	     -1.39960921	     -0.02414800	     -0.32466205	     15.60415350	     13.85914213	      2.98154331	    -20.92564255	      5.51916255	     -2.17271568	     10.82303146	     29.55150950	    -14.79987060	     -5.08015424	    -65.59497205	     -3.23447045	      0.07921098	     -1.11417854	      6.59863347	      6.94438528	     -6.42152067
      4.03500000	     -7.95432862	     -8.41377423	      0.44869110	     -1.39354948	     -0.02324149	     -0.32427043	     14.80608131	     13.62370886	      3.42579974	    -20.49477107	      5.63012589	     -2.36168543	     10.55300472	     30.12348336	    -14.48471250	     -5.38624409	    -64.77668039	     -2.76711101	      0.27397040	     -1.27301304	      6.50647516	      6.62413578	     -6.17622897
      4.04000000	     -7.84001081	     -8.14234924	      0.29190014	     -1.38748622	     -0.02237747	     -0.32388002	     13.93354117	     13.44392230	      3.96785758	    -20.02264434	      5.75076074	     -2.55797956	     10.21869244	     30.62921587	    -14.23796304	     -5.71465206	    -63.91548689	     -2.27157981	      0.45688176	     -1.62789921	      6.36343989	      6.36509886	     -5.89894987
      4.04500000	     -7.78053472	     -7.86376443	      0.15503247	     -1.38144163	     -0.02161049	     -0.32353979	     13.16085233	     13.22503810	      4.31326645	    -19.59485581	      5.82786544	     -2.70166886	      9.97725165	     31.16628816	    -13.95653096	     -6.01622891	    -62.96289344	     -1.78369250	      0.62252079	     -1.93802203	      6.28350658	      6.08674780	     -5.66586223
      4.05000000	     -7.70838571	     -7.61089683	      0.02323610	     -1.37539907	     -0.02091589	     -0.32332321	     12.36582581	     13.01568993	      4.67163077	    -19.14513578	      5.91783694	     -2.84454059	      9.76612487	     31.67064665	    -13.69241806	     -6.32315534	    -61.95360366	     -1.30240938	      0.75964429	     -2.29867323	      6.19134929	      5.86540375	     -5.43699766
      4.05500000	     -7.62439334	     -7.38818376	     -0.11387078	     -1.36935832	     -0.02028160	     -0.32307724	     11.55414626	     12.83477970	      5.03040724	    -18.68264642	      5.98804498	     -2.97757925	      9.55751555	     32.13896539	    -13.46140761	     -6.62359709	    -60.88632321	     -0.81424285	      0.87880975	     -2.74131486	      6.08495960	      5.65893503	     -5.20228555
      4.06000000	     -7.52673267	     -7.18750527	     -0.25063278	     -1.36331596	     -0.01970274	     -0.32292706	     10.72594585	     12.66336933	      5.38035000	    -18.21275711	      6.05267854	     -3.11956152	      9.33883863	     32.56854257	    -13.24744648	     -6.93307178	    -59.76458504	     -0.30359688	      1.00038286	     -3.28841432	      5.96413640	      5.50171507	     -4.96046658
      4.06500000	     -7.40646757	     -7.03948572	     -0.38319219	     -1.35729616	     -0.01921340	     -0.32283476	      9.86361542	     12.53891023	      5.77334300	    -17.72387279	      6.13523896	     -3.25211781	      9.09633086	     32.96695141	    -13.07505677	     -7.20915307	    -58.61749473	      0.27585066	      1.13540620	     -4.01793847	      5.81404042	      5.40558500	     -4.70813110
      4.07000000	     -7.46223372	     -6.89422292	     -0.44895811	     -1.35128378	     -0.01899105	     -0.32284859	      9.24947294	     12.38290574	      5.89516991	    -17.30396813	      6.23679518	     -3.28193771	      9.02419085	     33.55328643	    -12.84314302	     -7.36436332	    -57.37671870	      0.68066942	      1.26824118	     -4.18402093	      5.86944088	      5.29512694	     -4.61586664
      4.07500000	     -7.25429652	     -6.71994711	     -0.64182887	     -1.34527514	     -0.01843057	     -0.32278882	      8.29546782	     12.22203521	      6.32018607	    -16.82435613	      6.23785173	     -3.43561153	      8.74865014	     33.74726110	    -12.67690987	     -7.74780499	    -56.05864970	      1.25061091	      1.43883563	     -4.96671795	      5.60845090	      5.19817957	     -4.25649443
      4.08000000	     -7.20324605	     -6.62513257	     -0.70676535	     -1.33920933	     -0.01821657	     -0.32286873	      7.52532367	     12.12242363	      6.56409571	    -16.35082772	      6.30299217	     -3.61473139	      8.36447748	     34.17059804	    -12.51130466	     -7.95588919	    -54.78252801	      2.03001914	      1.85007790	     -6.10783079	      5.55059119	      5.15471697	     -4.14957809
      4.08500000	     -7.17022467	     -6.46519037	     -0.86475224	     -1.33323142	     -0.01799840	     -0.32291149	      6.82354122	     11.94239067	      6.75358363	    -15.95405453	      6.39288337	     -3.60108077	      8.27264799	     34.52067687	    -12.30956531	     -8.22467911	    -53.33161883	      2.43150991	      2.11388889	     -6.32745084	      5.48604814	      5.06935251	     -3.85157735
      4.09000000	     -7.10502961	     -6.33236133	     -0.97606448	     -1.32719781	     -0.01780619	     -0.32301038	      6.06990344	     11.78428185	      6.92759029	    -15.52261136	      6.44245977	     -3.66696934	      8.12018647	     34.81946298	    -12.12407665	     -8.48596352	    -51.83636754	      2.88239959	      2.52139471	     -6.57703122	      5.39993600	      5.00481364	     -3.64635610
      4.09500000	     -7.04095427	     -6.21814084	     -1.08474491	     -1.32121676	     -0.01767363	     -0.32319950	      5.32540722	     11.63826156	      7.16004309	    -15.10652123	      6.49857418	     -3.73663310	      7.92521804	     35.09535278	    -11.91692601	     -8.65100721	    -50.29516160	      3.39025776	      3.02661015	     -6.91275628	      5.30394047	      4.97591653	     -3.40728353
      4.10000000	     -7.03415394	     -6.11024210	     -1.19202884	     -1.31519741	     -0.01764134	     -0.32335931	      4.65992244	     11.49248066	      7.27293427	    -14.71026543	      6.55411316	     -3.73875485	      7.79230788	     35.40607329	    -11.74182754	     -8.87745689	    -48.69807124	      3.84057812	      3.66304141	     -7.06513695	      5.27928364	      4.94534510	     -3.22385182
      4.10500000	     -7.01610715	     -6.00243290	     -1.29298947	     -1.30918973	     -0.01763212	     -0.32358593	      3.98927452	     11.33822406	      7.40265139	    -14.32695283	      6.60892333	     -3.73003854	      7.66661435	     35.66734926	    -11.53785249	     -9.04518627	    -47.03740070	      4.29331718	      4.39609793	     -7.17962319	      5.23711156	      4.92417546	     -3.01395870
      4.11000000	     -7.01135033	     -5.90029763	     -1.39466705	     -1.30319915	     -0.01768272	     -0.32382354	      3.34423663	     11.18562957	      7.51137328	    -13.95785511	      6.66919463	     -3.69827602	      7.56417456	     35.91410293	    -11.33028224	     -9.17975858	    -45.32872587	      4.73148274	      5.24948859	     -7.23881195	      5.20973449	      4.90963220	     -2.80579333
      4.11500000	     -6.98814011	     -5.80352562	     -1.50129071	     -1.29720902	     -0.01775355	     -0.32407995	      2.69263075	     11.03366185	      7.62381026	    -13.61667384	      6.72934223	     -3.64019297	      7.47743658	     36.10336890	    -11.12265086	     -9.29496968	    -43.56968265	      5.17995634	      6.22404777	     -7.27093254	      5.15908580	      4.90616039	     -2.56835774
      4.12000000	     -7.01179801	     -5.70578250	     -1.59157595	     -1.29120758	     -0.01790574	     -0.32439655	      2.09998722	     10.87108831	      7.69064815	    -13.28174489	      6.78315517	     -3.55156729	      7.42718211	     36.31787249	    -10.89276309	     -9.37315317	    -41.76740054	      5.58151692	      7.28504232	     -7.25566624	      5.16048386	      4.90601535	     -2.37311936
      4.12500000	     -6.98179413	     -5.61169381	     -1.70535531	     -1.28524808	     -0.01804924	     -0.32469369	      1.47539397	     10.70985149	      7.78194259	    -12.99965580	      6.85152859	     -3.42356034	      7.41316118	     36.43267569	    -10.67083558	     -9.42310994	    -39.92289507	      6.00568026	      8.46016028	     -7.23966517	      5.09320493	      4.91417987	     -2.11163833
      4.13000000	     -6.99211708	     -5.51517307	     -1.80281270	     -1.27923061	     -0.01826479	     -0.32500917	      0.89641869	     10.54010413	      7.82547100	    -12.71735506	      6.91286296	     -3.26236804	      7.43990342	     36.56456518	    -10.43182872	     -9.44210035	    -38.04936247	      6.37749195	      9.69035365	     -7.22117354	      5.08286361	      4.91311686	     -1.89522619
      4.13500000	     -7.00410324	     -5.41643828	     -1.90110295	     -1.27320585	     -0.01852065	     -0.32535480	      0.33448994	     10.36039488	      7.85014399	    -12.46077924	      6.97866729	     -3.05679821	      7.51816713	     36.66790837	    -10.18138188	     -9.42620924	    -36.15219573	      6.72255922	     10.96173678	     -7.21458341	      5.07366023	      4.91770674	     -1.66908660
      4.14000000	     -7.12143118	     -5.31110341	     -1.95555603	     -1.26715736	     -0.01893509	     -0.32577098	     -0.09164212	     10.17678817	      7.85708920	    -12.24452002	      7.04267292	     -2.90181860	      7.58286835	     36.86950208	     -9.86992263	     -9.27446366	    -34.22914989	      6.96875394	     12.15781530	     -7.20294429	      5.19141139	      4.90637038	     -1.54114261
      4.14500000	     -7.04060821	     -5.21313690	     -2.10882817	     -1.26111465	     -0.01916056	     -0.32605286	     -0.72089889	      9.98351055	      7.84593947	    -12.04786944	      7.12901647	     -2.53153124	      7.79112527	     36.80054704	     -9.65398013	     -9.25115714	    -32.31654924	      7.30795876	     13.50420110	     -7.25918556	      5.07375766	      4.91449884	     -1.20118141
      4.15000000	     -7.16068212	     -5.09370299	     -2.17416286	     -1.25501136	     -0.01964992	     -0.32646256	     -1.11755905	      9.77978433	      7.85363883	    -11.88434378	      7.20238327	     -2.33799632	      7.91047200	     36.94358230	     -9.31797784	     -8.98633228	    -30.38342103	      7.48585064	     14.61359074	     -7.34292636	      5.20552196	      4.88479665	     -1.05982993
      4.15500000	     -7.07083278	     -4.95835370	     -2.32388711	     -1.24887944	     -0.01991206	     -0.32682628	     -1.71969553	      9.52744296	      7.77965558	    -11.75363344	      7.29442121	     -1.85660411	      8.23322159	     36.79945088	     -9.03510390	     -8.84202648	    -28.46880430	      7.77073762	     15.77190999	     -7.56773003	      5.09003499	      4.86381507	     -0.70715943
      4.16000000	     -7.04756636	     -4.79737997	     -2.43178325	     -1.24277436	     -0.02030959	     -0.32723415	     -2.20807065	      9.25015707	      7.68783341	    -11.69130951	      7.42594582	     -1.38698508	      8.72294433	     36.71145129	     -8.66295582	     -8.43744618	    -26.56391438	      7.99965899	     16.66424209	     -8.03821019	      5.05072521	      4.79338355	     -0.47462649
